General

Charlie Croker (Michael Caine) är ute ur fängelset och har en genialisk plan för århundradets stöt. I sällskap av stjärnförbrytaren Mr Bridger (Noël Coward) ger sig Charlie av med ett gäng toppskurkar och tre mycket speciella Mini-bilar. Målet är att stjäla 4 miljoner dollar mitt framför näsan på polisen i Turin. Men med polisen och maffian i hälarna upptäcker Charlie att det var rena barnleken att lägga vantarna på pengarna jämfört med att komma undan med dem...



Complete name                    : The Italian Job (1969).avi
Format                           : AVI
Format/Info                      : Audio Video Interleave
File size                        : 697 MiB
Duration                         : 1h 35mn
Overall bit rate                 : 1 021 Kbps

Video
ID                               : 0
Format                           : MPEG-4 Visual
Format profile                   : Advanced Simple@L5
Format settings, BVOP            : 1
Format settings, QPel            : No
Format settings, GMC             : No warppoints
Format settings, Matrix          : Default (MPEG)
Muxing mode                      : Packed bitstream
Codec ID                         : XVID
Codec ID/Hint                    : XviD
Duration                         : 1h 35mn
Bit rate                         : 563 Kbps
Width                            : 536 pixels
Height                           : 224 pixels
Display aspect ratio             : 2.35:1
Frame rate                       : 25.000 fps
Color space                      : YUV
Chroma subsampling               : 4:2:0
Bit depth                        : 8 bits
Scan type                        : Progressive
Compression mode                 : Lossy
Bits/(Pixel*Frame)               : 0.188
Stream size                      : 385 MiB (55%)
Writing library                  : XviD 1.2.1 (UTC 2008-12-04)

Audio
ID                               : 1
Format                           : AC-3
Format/Info                      : Audio Coding 3
Mode extension                   : CM (complete main)
Codec ID                         : 2000
Duration                         : 1h 35mn
Bit rate mode                    : Constant
Bit rate                         : 448 Kbps
Channel(s)                       : 6 channels
Channel positions                : Front: L C R, Side: L R, LFE
Sampling rate                    : 48.0 KHz
Bit depth                        : 16 bits
Compression mode                 : Lossy
Stream size                      : 306 MiB (44%)
Alignment                        : Split accross interleaves
Interleave, duration             : 40 ms (1.00 video frame)
Interleave, preload duration     : 500 ms

Subtitle                         : Swedish